<svg xmlns="http://www.w3.org/2000/svg" viewBox="0 0 596.28 842.89"><defs><style>.cls-1{fill:none;stroke:#010101;stroke-linecap:round;stroke-linejoin:round;}</style></defs><title>Asset 1</title><g id="Layer_2" data-name="Layer 2"><g id="Layer_1-2" data-name="Layer 1"><line class="cls-1" x1="0.5" y1="502.23" x2="0.5" y2="181.92"/><line class="cls-1" x1="595.78" y1="181.92" x2="595.78" y2="502.23"/><line class="cls-1" x1="510.74" y1="181.92" x2="510.74" y2="170.58"/><line class="cls-1" x1="595.78" y1="170.58" x2="510.74" y2="170.58"/><line class="cls-1" x1="595.78" y1="181.92" x2="510.74" y2="181.92"/><line class="cls-1" x1="0.5" y1="181.92" x2="85.54" y2="181.92"/><line class="cls-1" x1="0.5" y1="170.58" x2="85.54" y2="170.58"/><line class="cls-1" x1="85.54" y1="181.92" x2="85.54" y2="170.58"/><path class="cls-1" d="M595.78,502.23c0,131.56-94.71,340.16-218.07,340.16"/><path class="cls-1" d="M.5,502.23c0,131.56,94.71,340.16,218.07,340.16"/><path class="cls-1" d="M595.78,170.58C595.78,59.22,525,.5,421.84.5"/><path class="cls-1" d="M.5,170.58C.5,59.22,71.32.5,174.44.5"/><line class="cls-1" x1="377.71" y1="842.39" x2="218.57" y2="842.39"/><line class="cls-1" x1="174.44" y1="0.5" x2="421.84" y2="0.5"/></g></g></svg>